<svg width="37" height="37" fill="none" xmlns="http://www.w3.org/2000/svg"><path d="M14.658 9.67h2.57c1.419 0 3.158.99 3.884 2.208l3.18 5.337h5.783a1.285 1.285 0 010 2.57h-5.904l-3.18 5.337c-.727 1.219-2.466 2.207-3.886 2.207h-2.569l4.496-7.544h-8.98L8.21 22.936H5.64L8.235 18.5v-.042l-2.57-4.394h2.57l1.843 3.151h9.076l-4.496-7.544z" fill="#2D2D2D"/><mask id="a" maskUnits="userSpaceOnUse" x="5" y="9" width="27" height="19"><path d="M14.658 9.67h2.57c1.419 0 3.158.99 3.884 2.208l3.18 5.337h5.783a1.285 1.285 0 010 2.57h-5.904l-3.18 5.337c-.727 1.219-2.466 2.207-3.886 2.207h-2.569l4.496-7.544h-8.98L8.21 22.936H5.64L8.235 18.5v-.042l-2.57-4.394h2.57l1.843 3.151h9.076l-4.496-7.544z" fill="#fff"/></mask></svg>