<svg width="27" height="27" fill="none" xmlns="http://www.w3.org/2000/svg"><path fill-rule="evenodd" clip-rule="evenodd" d="M.653 22.493a3.854 3.854 0 003.854 3.854h17.986a3.854 3.854 0 003.854-3.854V4.507A3.854 3.854 0 0022.493.653H4.507A3.854 3.854 0 00.653 4.507v17.986zm23.125 0c0 .71-.575 1.285-1.285 1.285H4.507c-.71 0-1.285-.575-1.285-1.285V4.507c0-.71.575-1.285 1.285-1.285h6.424v10.292h3.077l2.062-2.758 2.061 2.758h3.077V3.222h1.285c.71 0 1.285.575 1.285 1.285v17.986zM13.5 3.223h5.139v6.854l-2.57-3.437-2.569 3.437V3.222z" fill="#2D2D2D"/></svg>