<svg width="37" height="37" fill="none" xmlns="http://www.w3.org/2000/svg"><path fill-rule="evenodd" clip-rule="evenodd" d="M21.096 5.387l8.966 8.966v18.39H21.07v-7.71a2.57 2.57 0 10-5.138 0v7.71H6.938V14.094l8.708-8.708a3.854 3.854 0 015.45 0zm-11.59 9.772l7.956-7.955a1.285 1.285 0 011.817 0l8.214 8.213v14.756H23.64v-5.14a5.139 5.139 0 00-10.278 0v5.14H9.507V15.159z" fill="#2D2D2D"/><mask id="a" maskUnits="userSpaceOnUse" x="6" y="4" width="25" height="29"><path fill-rule="evenodd" clip-rule="evenodd" d="M21.096 5.387l8.966 8.966v18.39H21.07v-7.71a2.57 2.57 0 10-5.138 0v7.71H6.938V14.094l8.708-8.708a3.854 3.854 0 015.45 0zm-11.59 9.772l7.956-7.955a1.285 1.285 0 011.817 0l8.214 8.213v14.756H23.64v-5.14a5.139 5.139 0 00-10.278 0v5.14H9.507V15.159z" fill="#fff"/></mask></svg>