<svg width="31" height="31" fill="none" xmlns="http://www.w3.org/2000/svg"><path fill-rule="evenodd" clip-rule="evenodd" d="M20.085 3.875H11.56c-3.53 0-6.393 3.013-6.393 6.73v8.974c0 3.717 2.862 6.73 6.393 6.73h8.525c3.532 0 6.394-3.013 6.394-6.73v-8.974c0-3.717-2.862-6.73-6.394-6.73zm-12.787 6.73c0-2.478 1.908-4.487 4.262-4.487h8.525c2.354 0 4.263 2.01 4.263 4.487v8.974c0 2.478-1.909 4.487-4.263 4.487H11.56c-2.354 0-4.262-2.009-4.262-4.487v-8.974zm8.525 10.096c-2.943 0-5.328-2.511-5.328-5.609 0-3.097 2.385-5.608 5.328-5.608 2.942 0 5.328 2.51 5.328 5.608s-2.386 5.609-5.328 5.609zm0-2.244c1.765 0 3.197-1.506 3.197-3.365 0-1.858-1.431-3.365-3.197-3.365s-3.197 1.507-3.197 3.365c0 1.859 1.431 3.365 3.197 3.365zm5.328-7.852c.589 0 1.066-.502 1.066-1.121 0-.62-.477-1.122-1.066-1.122-.588 0-1.066.502-1.066 1.122 0 .62.477 1.121 1.066 1.121z" fill="#262626"/></svg>