<svg width="31" height="31" fill="none" xmlns="http://www.w3.org/2000/svg"><path d="M25.204 5.756a1.512 1.512 0 00-.108 2.03c2.231 2.801 3.4 6.632 2.354 10.648-1.215 4.693-4.892 8.2-9.555 9.14C10.05 29.126 3.171 23.064 3.171 15.48c0-6.278 4.693-11.447 10.77-12.201v3.108a9.229 9.229 0 00-7.585 10.508c.6 4.016 3.939 7.247 7.97 7.74 5.6.692 10.386-3.678 10.386-9.155a9.167 9.167 0 00-1.585-5.17c-.523-.77-1.646-.815-2.308-.17l-.015.016c-.524.523-.57 1.339-.17 1.954a6.15 6.15 0 01.754 5.108 6.138 6.138 0 01-4.523 4.262 6.154 6.154 0 01-7.54-6c0-2.862 1.97-5.247 4.616-5.94v3.293c-.923.539-1.538 1.508-1.538 2.647a3.086 3.086 0 003.077 3.077 3.086 3.086 0 003.077-3.077 3.028 3.028 0 00-1.538-2.647V1.186c0-.6-.493-1.092-1.093-1.092C7.68-.214.571 6.34.125 14.557-.43 24.634 8.448 32.743 18.603 30.558a15.487 15.487 0 0011.924-11.801c1.093-4.862-.307-9.478-3.03-12.878-.57-.723-1.647-.77-2.293-.123z" fill="#37474F"/></svg>