<svg width="21" height="19" fill="none" xmlns="http://www.w3.org/2000/svg"><path fill-rule="evenodd" clip-rule="evenodd" d="M12.064.818c1.675-.33 3.179-.09 4.445.521.07.033.136.067.2.1l1.242-.502c1.278-.517 2.629.565 2.404 1.925.609.669.706 1.786-.117 2.522l-1.273 1.138c.015 1.4-.177 2.656-.766 4.055-1.051 2.494-2.559 4.37-4.403 5.675a11.374 11.374 0 01-4.103 1.823c-.909.204-1.68.267-2.246.253a11.45 11.45 0 01-4.748-.97c-.847-.37-1.469-.753-1.842-1.041-1.351-1.044-.582-3.206 1.124-3.163.328.009.635.004.922-.013-.543-.644-.832-1.292-.95-1.825a1.769 1.769 0 01-.033-.546 5.083 5.083 0 01-.316-.423C.914 9.312.71 8.248.767 7.34l.008-.098.005-.045c.031-.264.116-.502.24-.709-.365-1.164-.282-2.336.062-3.439.112-.358.23-.639.326-.827a1.766 1.766 0 012.915-.348C5.611 3.38 6.883 4.275 8.097 4.71c.15.054.295.099.434.136C8.917 2.407 10.52.95 12.064.818zm-1.81 6.095s-3.193.74-6.756-3.425c0 0-1.389 2.73 1.018 4.397 0 0-.786.139-1.435-.324 0 0-.278 2.36 2.592 3.286H4.145s.417 1.897 3.101 2.314c0 0-1.11 1.48-4.72 1.388 0 0 2.036 1.573 5.137 1.527 0 0 5.738.278 8.469-6.202.671-1.593.602-3.1.555-3.84l1.759-1.574-1.759.324s1.204-.88 1.343-1.712l-1.944.787s-1.458-1.32-3.934-.787c0 0-2.268.463-1.898 3.841z" fill="#37474F"/></svg>